<svg xmlns="http://www.w3.org/2000/svg" viewBox="0 0 512 512"><path d="M436.714 26.001H75.287c-27.21 0-49.285 22.075-49.285 49.286v361.427c0 27.211 22.075 49.285 49.285 49.285h361.427c27.211 0 49.284-22.074 49.284-49.285V75.287c0-27.211-22.073-49.286-49.284-49.286z" fill="#fbbf14"/><path fill="#273238" d="M91.716 190.287h33.883v131.222H91.716zM241.831 321.509h-29.469v-88.714l-11.912 88.714H179.3l-12.528-86.763v86.763h-29.776V190.287h43.947c3.39 20.329 6.16 40.968 8.934 61.504l7.803-61.504h44.152v131.222zM330.544 236.8c0-8.317.31-17.25-1.438-25.055-4.414-23.102-32.24-21.458-50.311-21.458h-25.261v131.222c88.408.103 77.01 6.16 77.01-84.709zm-43.022 61.913v-85.94c12.219 0 10.576 6.47 10.576 16.428v50.622c.001 9.958 1.951 19.199-10.576 18.89zM395.949 223.656c-9.137 0-15.298 2.773-21.457 9.447v-42.816h-32.55v131.222h30.597l1.953-8.317c5.852 6.982 12.218 10.063 21.457 10.063 20.331 0 22.795-15.607 22.795-31.729v-36.963c0-17.763-.821-30.907-22.795-30.907zm-16.427 80.706c-1.642 0-3.081-.823-3.902-2.465-2.26-5.237-1.128-45.281-1.128-45.897 0-3.901-1.132-13.04 5.03-13.04 7.496 0 6.364 7.496 6.364 13.04v33.574c.001 5.546 1.644 14.788-6.364 14.788z"/></svg>