<?xml version="1.0" encoding="UTF-8"?>
<svg version="1.1" baseProfile="tiny" xmlns="http://www.w3.org/2000/svg" viewBox="0 0 700 700">
<rect shape-rendering="optimizeSpeed"  x="0" y="0" width="700" height="700" fill="white" />
<rect shape-rendering="optimizeSpeed"  x="37" y="37" width="25" height="25" fill="black" />
<rect shape-rendering="optimizeSpeed"  x="62" y="37" width="25" height="25" fill="black" />
<rect shape-rendering="optimizeSpeed"  x="87" y="37" width="25" height="25" fill="black" />
<rect shape-rendering="optimizeSpeed"  x="112" y="37" width="25" height="25" fill="black" />
<rect shape-rendering="optimizeSpeed"  x="137" y="37" width="25" height="25" fill="black" />
<rect shape-rendering="optimizeSpeed"  x="162" y="37" width="25" height="25" fill="black" />
<rect shape-rendering="optimizeSpeed"  x="187" y="37" width="25" height="25" fill="black" />
<rect shape-rendering="optimizeSpeed"  x="237" y="37" width="25" height="25" fill="black" />
<rect shape-rendering="optimizeSpeed"  x="312" y="37" width="25" height="25" fill="black" />
<rect shape-rendering="optimizeSpeed"  x="337" y="37" width="25" height="25" fill="black" />
<rect shape-rendering="optimizeSpeed"  x="387" y="37" width="25" height="25" fill="black" />
<rect shape-rendering="optimizeSpeed"  x="437" y="37" width="25" height="25" fill="black" />
<rect shape-rendering="optimizeSpeed"  x="487" y="37" width="25" height="25" fill="black" />
<rect shape-rendering="optimizeSpeed"  x="512" y="37" width="25" height="25" fill="black" />
<rect shape-rendering="optimizeSpeed"  x="537" y="37" width="25" height="25" fill="black" />
<rect shape-rendering="optimizeSpeed"  x="562" y="37" width="25" height="25" fill="black" />
<rect shape-rendering="optimizeSpeed"  x="587" y="37" width="25" height="25" fill="black" />
<rect shape-rendering="optimizeSpeed"  x="612" y="37" width="25" height="25" fill="black" />
<rect shape-rendering="optimizeSpeed"  x="637" y="37" width="25" height="25" fill="black" />
<rect shape-rendering="optimizeSpeed"  x="37" y="62" width="25" height="25" fill="black" />
<rect shape-rendering="optimizeSpeed"  x="187" y="62" width="25" height="25" fill="black" />
<rect shape-rendering="optimizeSpeed"  x="262" y="62" width="25" height="25" fill="black" />
<rect shape-rendering="optimizeSpeed"  x="287" y="62" width="25" height="25" fill="black" />
<rect shape-rendering="optimizeSpeed"  x="437" y="62" width="25" height="25" fill="black" />
<rect shape-rendering="optimizeSpeed"  x="487" y="62" width="25" height="25" fill="black" />
<rect shape-rendering="optimizeSpeed"  x="637" y="62" width="25" height="25" fill="black" />
<rect shape-rendering="optimizeSpeed"  x="37" y="87" width="25" height="25" fill="black" />
<rect shape-rendering="optimizeSpeed"  x="87" y="87" width="25" height="25" fill="black" />
<rect shape-rendering="optimizeSpeed"  x="112" y="87" width="25" height="25" fill="black" />
<rect shape-rendering="optimizeSpeed"  x="137" y="87" width="25" height="25" fill="black" />
<rect shape-rendering="optimizeSpeed"  x="187" y="87" width="25" height="25" fill="black" />
<rect shape-rendering="optimizeSpeed"  x="287" y="87" width="25" height="25" fill="black" />
<rect shape-rendering="optimizeSpeed"  x="337" y="87" width="25" height="25" fill="black" />
<rect shape-rendering="optimizeSpeed"  x="362" y="87" width="25" height="25" fill="black" />
<rect shape-rendering="optimizeSpeed"  x="387" y="87" width="25" height="25" fill="black" />
<rect shape-rendering="optimizeSpeed"  x="412" y="87" width="25" height="25" fill="black" />
<rect shape-rendering="optimizeSpeed"  x="487" y="87" width="25" height="25" fill="black" />
<rect shape-rendering="optimizeSpeed"  x="537" y="87" width="25" height="25" fill="black" />
<rect shape-rendering="optimizeSpeed"  x="562" y="87" width="25" height="25" fill="black" />
<rect shape-rendering="optimizeSpeed"  x="587" y="87" width="25" height="25" fill="black" />
<rect shape-rendering="optimizeSpeed"  x="637" y="87" width="25" height="25" fill="black" />
<rect shape-rendering="optimizeSpeed"  x="37" y="112" width="25" height="25" fill="black" />
<rect shape-rendering="optimizeSpeed"  x="87" y="112" width="25" height="25" fill="black" />
<rect shape-rendering="optimizeSpeed"  x="112" y="112" width="25" height="25" fill="black" />
<rect shape-rendering="optimizeSpeed"  x="137" y="112" width="25" height="25" fill="black" />
<rect shape-rendering="optimizeSpeed"  x="187" y="112" width="25" height="25" fill="black" />
<rect shape-rendering="optimizeSpeed"  x="337" y="112" width="25" height="25" fill="black" />
<rect shape-rendering="optimizeSpeed"  x="362" y="112" width="25" height="25" fill="black" />
<rect shape-rendering="optimizeSpeed"  x="437" y="112" width="25" height="25" fill="black" />
<rect shape-rendering="optimizeSpeed"  x="487" y="112" width="25" height="25" fill="black" />
<rect shape-rendering="optimizeSpeed"  x="537" y="112" width="25" height="25" fill="black" />
<rect shape-rendering="optimizeSpeed"  x="562" y="112" width="25" height="25" fill="black" />
<rect shape-rendering="optimizeSpeed"  x="587" y="112" width="25" height="25" fill="black" />
<rect shape-rendering="optimizeSpeed"  x="637" y="112" width="25" height="25" fill="black" />
<rect shape-rendering="optimizeSpeed"  x="37" y="137" width="25" height="25" fill="black" />
<rect shape-rendering="optimizeSpeed"  x="87" y="137" width="25" height="25" fill="black" />
<rect shape-rendering="optimizeSpeed"  x="112" y="137" width="25" height="25" fill="black" />
<rect shape-rendering="optimizeSpeed"  x="137" y="137" width="25" height="25" fill="black" />
<rect shape-rendering="optimizeSpeed"  x="187" y="137" width="25" height="25" fill="black" />
<rect shape-rendering="optimizeSpeed"  x="262" y="137" width="25" height="25" fill="black" />
<rect shape-rendering="optimizeSpeed"  x="312" y="137" width="25" height="25" fill="black" />
<rect shape-rendering="optimizeSpeed"  x="387" y="137" width="25" height="25" fill="black" />
<rect shape-rendering="optimizeSpeed"  x="437" y="137" width="25" height="25" fill="black" />
<rect shape-rendering="optimizeSpeed"  x="487" y="137" width="25" height="25" fill="black" />
<rect shape-rendering="optimizeSpeed"  x="537" y="137" width="25" height="25" fill="black" />
<rect shape-rendering="optimizeSpeed"  x="562" y="137" width="25" height="25" fill="black" />
<rect shape-rendering="optimizeSpeed"  x="587" y="137" width="25" height="25" fill="black" />
<rect shape-rendering="optimizeSpeed"  x="637" y="137" width="25" height="25" fill="black" />
<rect shape-rendering="optimizeSpeed"  x="37" y="162" width="25" height="25" fill="black" />
<rect shape-rendering="optimizeSpeed"  x="187" y="162" width="25" height="25" fill="black" />
<rect shape-rendering="optimizeSpeed"  x="287" y="162" width="25" height="25" fill="black" />
<rect shape-rendering="optimizeSpeed"  x="337" y="162" width="25" height="25" fill="black" />
<rect shape-rendering="optimizeSpeed"  x="487" y="162" width="25" height="25" fill="black" />
<rect shape-rendering="optimizeSpeed"  x="637" y="162" width="25" height="25" fill="black" />
<rect shape-rendering="optimizeSpeed"  x="37" y="187" width="25" height="25" fill="black" />
<rect shape-rendering="optimizeSpeed"  x="62" y="187" width="25" height="25" fill="black" />
<rect shape-rendering="optimizeSpeed"  x="87" y="187" width="25" height="25" fill="black" />
<rect shape-rendering="optimizeSpeed"  x="112" y="187" width="25" height="25" fill="black" />
<rect shape-rendering="optimizeSpeed"  x="137" y="187" width="25" height="25" fill="black" />
<rect shape-rendering="optimizeSpeed"  x="162" y="187" width="25" height="25" fill="black" />
<rect shape-rendering="optimizeSpeed"  x="187" y="187" width="25" height="25" fill="black" />
<rect shape-rendering="optimizeSpeed"  x="237" y="187" width="25" height="25" fill="black" />
<rect shape-rendering="optimizeSpeed"  x="287" y="187" width="25" height="25" fill="black" />
<rect shape-rendering="optimizeSpeed"  x="337" y="187" width="25" height="25" fill="black" />
<rect shape-rendering="optimizeSpeed"  x="387" y="187" width="25" height="25" fill="black" />
<rect shape-rendering="optimizeSpeed"  x="437" y="187" width="25" height="25" fill="black" />
<rect shape-rendering="optimizeSpeed"  x="487" y="187" width="25" height="25" fill="black" />
<rect shape-rendering="optimizeSpeed"  x="512" y="187" width="25" height="25" fill="black" />
<rect shape-rendering="optimizeSpeed"  x="537" y="187" width="25" height="25" fill="black" />
<rect shape-rendering="optimizeSpeed"  x="562" y="187" width="25" height="25" fill="black" />
<rect shape-rendering="optimizeSpeed"  x="587" y="187" width="25" height="25" fill="black" />
<rect shape-rendering="optimizeSpeed"  x="612" y="187" width="25" height="25" fill="black" />
<rect shape-rendering="optimizeSpeed"  x="637" y="187" width="25" height="25" fill="black" />
<rect shape-rendering="optimizeSpeed"  x="237" y="212" width="25" height="25" fill="black" />
<rect shape-rendering="optimizeSpeed"  x="287" y="212" width="25" height="25" fill="black" />
<rect shape-rendering="optimizeSpeed"  x="312" y="212" width="25" height="25" fill="black" />
<rect shape-rendering="optimizeSpeed"  x="362" y="212" width="25" height="25" fill="black" />
<rect shape-rendering="optimizeSpeed"  x="437" y="212" width="25" height="25" fill="black" />
<rect shape-rendering="optimizeSpeed"  x="37" y="237" width="25" height="25" fill="black" />
<rect shape-rendering="optimizeSpeed"  x="62" y="237" width="25" height="25" fill="black" />
<rect shape-rendering="optimizeSpeed"  x="112" y="237" width="25" height="25" fill="black" />
<rect shape-rendering="optimizeSpeed"  x="137" y="237" width="25" height="25" fill="black" />
<rect shape-rendering="optimizeSpeed"  x="187" y="237" width="25" height="25" fill="black" />
<rect shape-rendering="optimizeSpeed"  x="262" y="237" width="25" height="25" fill="black" />
<rect shape-rendering="optimizeSpeed"  x="287" y="237" width="25" height="25" fill="black" />
<rect shape-rendering="optimizeSpeed"  x="312" y="237" width="25" height="25" fill="black" />
<rect shape-rendering="optimizeSpeed"  x="387" y="237" width="25" height="25" fill="black" />
<rect shape-rendering="optimizeSpeed"  x="437" y="237" width="25" height="25" fill="black" />
<rect shape-rendering="optimizeSpeed"  x="487" y="237" width="25" height="25" fill="black" />
<rect shape-rendering="optimizeSpeed"  x="637" y="237" width="25" height="25" fill="black" />
<rect shape-rendering="optimizeSpeed"  x="37" y="262" width="25" height="25" fill="black" />
<rect shape-rendering="optimizeSpeed"  x="87" y="262" width="25" height="25" fill="black" />
<rect shape-rendering="optimizeSpeed"  x="162" y="262" width="25" height="25" fill="black" />
<rect shape-rendering="optimizeSpeed"  x="262" y="262" width="25" height="25" fill="black" />
<rect shape-rendering="optimizeSpeed"  x="337" y="262" width="25" height="25" fill="black" />
<rect shape-rendering="optimizeSpeed"  x="387" y="262" width="25" height="25" fill="black" />
<rect shape-rendering="optimizeSpeed"  x="412" y="262" width="25" height="25" fill="black" />
<rect shape-rendering="optimizeSpeed"  x="512" y="262" width="25" height="25" fill="black" />
<rect shape-rendering="optimizeSpeed"  x="537" y="262" width="25" height="25" fill="black" />
<rect shape-rendering="optimizeSpeed"  x="562" y="262" width="25" height="25" fill="black" />
<rect shape-rendering="optimizeSpeed"  x="587" y="262" width="25" height="25" fill="black" />
<rect shape-rendering="optimizeSpeed"  x="612" y="262" width="25" height="25" fill="black" />
<rect shape-rendering="optimizeSpeed"  x="112" y="287" width="25" height="25" fill="black" />
<rect shape-rendering="optimizeSpeed"  x="187" y="287" width="25" height="25" fill="black" />
<rect shape-rendering="optimizeSpeed"  x="212" y="287" width="25" height="25" fill="black" />
<rect shape-rendering="optimizeSpeed"  x="237" y="287" width="25" height="25" fill="black" />
<rect shape-rendering="optimizeSpeed"  x="287" y="287" width="25" height="25" fill="black" />
<rect shape-rendering="optimizeSpeed"  x="312" y="287" width="25" height="25" fill="black" />
<rect shape-rendering="optimizeSpeed"  x="412" y="287" width="25" height="25" fill="black" />
<rect shape-rendering="optimizeSpeed"  x="462" y="287" width="25" height="25" fill="black" />
<rect shape-rendering="optimizeSpeed"  x="487" y="287" width="25" height="25" fill="black" />
<rect shape-rendering="optimizeSpeed"  x="537" y="287" width="25" height="25" fill="black" />
<rect shape-rendering="optimizeSpeed"  x="562" y="287" width="25" height="25" fill="black" />
<rect shape-rendering="optimizeSpeed"  x="637" y="287" width="25" height="25" fill="black" />
<rect shape-rendering="optimizeSpeed"  x="62" y="312" width="25" height="25" fill="black" />
<rect shape-rendering="optimizeSpeed"  x="87" y="312" width="25" height="25" fill="black" />
<rect shape-rendering="optimizeSpeed"  x="112" y="312" width="25" height="25" fill="black" />
<rect shape-rendering="optimizeSpeed"  x="137" y="312" width="25" height="25" fill="black" />
<rect shape-rendering="optimizeSpeed"  x="162" y="312" width="25" height="25" fill="black" />
<rect shape-rendering="optimizeSpeed"  x="212" y="312" width="25" height="25" fill="black" />
<rect shape-rendering="optimizeSpeed"  x="237" y="312" width="25" height="25" fill="black" />
<rect shape-rendering="optimizeSpeed"  x="262" y="312" width="25" height="25" fill="black" />
<rect shape-rendering="optimizeSpeed"  x="287" y="312" width="25" height="25" fill="black" />
<rect shape-rendering="optimizeSpeed"  x="312" y="312" width="25" height="25" fill="black" />
<rect shape-rendering="optimizeSpeed"  x="337" y="312" width="25" height="25" fill="black" />
<rect shape-rendering="optimizeSpeed"  x="412" y="312" width="25" height="25" fill="black" />
<rect shape-rendering="optimizeSpeed"  x="487" y="312" width="25" height="25" fill="black" />
<rect shape-rendering="optimizeSpeed"  x="562" y="312" width="25" height="25" fill="black" />
<rect shape-rendering="optimizeSpeed"  x="587" y="312" width="25" height="25" fill="black" />
<rect shape-rendering="optimizeSpeed"  x="612" y="312" width="25" height="25" fill="black" />
<rect shape-rendering="optimizeSpeed"  x="637" y="312" width="25" height="25" fill="black" />
<rect shape-rendering="optimizeSpeed"  x="62" y="337" width="25" height="25" fill="black" />
<rect shape-rendering="optimizeSpeed"  x="87" y="337" width="25" height="25" fill="black" />
<rect shape-rendering="optimizeSpeed"  x="112" y="337" width="25" height="25" fill="black" />
<rect shape-rendering="optimizeSpeed"  x="137" y="337" width="25" height="25" fill="black" />
<rect shape-rendering="optimizeSpeed"  x="187" y="337" width="25" height="25" fill="black" />
<rect shape-rendering="optimizeSpeed"  x="237" y="337" width="25" height="25" fill="black" />
<rect shape-rendering="optimizeSpeed"  x="262" y="337" width="25" height="25" fill="black" />
<rect shape-rendering="optimizeSpeed"  x="312" y="337" width="25" height="25" fill="black" />
<rect shape-rendering="optimizeSpeed"  x="337" y="337" width="25" height="25" fill="black" />
<rect shape-rendering="optimizeSpeed"  x="437" y="337" width="25" height="25" fill="black" />
<rect shape-rendering="optimizeSpeed"  x="487" y="337" width="25" height="25" fill="black" />
<rect shape-rendering="optimizeSpeed"  x="637" y="337" width="25" height="25" fill="black" />
<rect shape-rendering="optimizeSpeed"  x="37" y="362" width="25" height="25" fill="black" />
<rect shape-rendering="optimizeSpeed"  x="87" y="362" width="25" height="25" fill="black" />
<rect shape-rendering="optimizeSpeed"  x="112" y="362" width="25" height="25" fill="black" />
<rect shape-rendering="optimizeSpeed"  x="162" y="362" width="25" height="25" fill="black" />
<rect shape-rendering="optimizeSpeed"  x="237" y="362" width="25" height="25" fill="black" />
<rect shape-rendering="optimizeSpeed"  x="262" y="362" width="25" height="25" fill="black" />
<rect shape-rendering="optimizeSpeed"  x="362" y="362" width="25" height="25" fill="black" />
<rect shape-rendering="optimizeSpeed"  x="387" y="362" width="25" height="25" fill="black" />
<rect shape-rendering="optimizeSpeed"  x="412" y="362" width="25" height="25" fill="black" />
<rect shape-rendering="optimizeSpeed"  x="462" y="362" width="25" height="25" fill="black" />
<rect shape-rendering="optimizeSpeed"  x="537" y="362" width="25" height="25" fill="black" />
<rect shape-rendering="optimizeSpeed"  x="612" y="362" width="25" height="25" fill="black" />
<rect shape-rendering="optimizeSpeed"  x="37" y="387" width="25" height="25" fill="black" />
<rect shape-rendering="optimizeSpeed"  x="62" y="387" width="25" height="25" fill="black" />
<rect shape-rendering="optimizeSpeed"  x="87" y="387" width="25" height="25" fill="black" />
<rect shape-rendering="optimizeSpeed"  x="112" y="387" width="25" height="25" fill="black" />
<rect shape-rendering="optimizeSpeed"  x="187" y="387" width="25" height="25" fill="black" />
<rect shape-rendering="optimizeSpeed"  x="212" y="387" width="25" height="25" fill="black" />
<rect shape-rendering="optimizeSpeed"  x="237" y="387" width="25" height="25" fill="black" />
<rect shape-rendering="optimizeSpeed"  x="312" y="387" width="25" height="25" fill="black" />
<rect shape-rendering="optimizeSpeed"  x="337" y="387" width="25" height="25" fill="black" />
<rect shape-rendering="optimizeSpeed"  x="362" y="387" width="25" height="25" fill="black" />
<rect shape-rendering="optimizeSpeed"  x="412" y="387" width="25" height="25" fill="black" />
<rect shape-rendering="optimizeSpeed"  x="437" y="387" width="25" height="25" fill="black" />
<rect shape-rendering="optimizeSpeed"  x="537" y="387" width="25" height="25" fill="black" />
<rect shape-rendering="optimizeSpeed"  x="562" y="387" width="25" height="25" fill="black" />
<rect shape-rendering="optimizeSpeed"  x="587" y="387" width="25" height="25" fill="black" />
<rect shape-rendering="optimizeSpeed"  x="612" y="387" width="25" height="25" fill="black" />
<rect shape-rendering="optimizeSpeed"  x="637" y="387" width="25" height="25" fill="black" />
<rect shape-rendering="optimizeSpeed"  x="37" y="412" width="25" height="25" fill="black" />
<rect shape-rendering="optimizeSpeed"  x="87" y="412" width="25" height="25" fill="black" />
<rect shape-rendering="optimizeSpeed"  x="112" y="412" width="25" height="25" fill="black" />
<rect shape-rendering="optimizeSpeed"  x="137" y="412" width="25" height="25" fill="black" />
<rect shape-rendering="optimizeSpeed"  x="162" y="412" width="25" height="25" fill="black" />
<rect shape-rendering="optimizeSpeed"  x="212" y="412" width="25" height="25" fill="black" />
<rect shape-rendering="optimizeSpeed"  x="237" y="412" width="25" height="25" fill="black" />
<rect shape-rendering="optimizeSpeed"  x="312" y="412" width="25" height="25" fill="black" />
<rect shape-rendering="optimizeSpeed"  x="462" y="412" width="25" height="25" fill="black" />
<rect shape-rendering="optimizeSpeed"  x="487" y="412" width="25" height="25" fill="black" />
<rect shape-rendering="optimizeSpeed"  x="512" y="412" width="25" height="25" fill="black" />
<rect shape-rendering="optimizeSpeed"  x="562" y="412" width="25" height="25" fill="black" />
<rect shape-rendering="optimizeSpeed"  x="587" y="412" width="25" height="25" fill="black" />
<rect shape-rendering="optimizeSpeed"  x="637" y="412" width="25" height="25" fill="black" />
<rect shape-rendering="optimizeSpeed"  x="37" y="437" width="25" height="25" fill="black" />
<rect shape-rendering="optimizeSpeed"  x="87" y="437" width="25" height="25" fill="black" />
<rect shape-rendering="optimizeSpeed"  x="137" y="437" width="25" height="25" fill="black" />
<rect shape-rendering="optimizeSpeed"  x="162" y="437" width="25" height="25" fill="black" />
<rect shape-rendering="optimizeSpeed"  x="187" y="437" width="25" height="25" fill="black" />
<rect shape-rendering="optimizeSpeed"  x="262" y="437" width="25" height="25" fill="black" />
<rect shape-rendering="optimizeSpeed"  x="287" y="437" width="25" height="25" fill="black" />
<rect shape-rendering="optimizeSpeed"  x="337" y="437" width="25" height="25" fill="black" />
<rect shape-rendering="optimizeSpeed"  x="362" y="437" width="25" height="25" fill="black" />
<rect shape-rendering="optimizeSpeed"  x="437" y="437" width="25" height="25" fill="black" />
<rect shape-rendering="optimizeSpeed"  x="462" y="437" width="25" height="25" fill="black" />
<rect shape-rendering="optimizeSpeed"  x="487" y="437" width="25" height="25" fill="black" />
<rect shape-rendering="optimizeSpeed"  x="512" y="437" width="25" height="25" fill="black" />
<rect shape-rendering="optimizeSpeed"  x="537" y="437" width="25" height="25" fill="black" />
<rect shape-rendering="optimizeSpeed"  x="587" y="437" width="25" height="25" fill="black" />
<rect shape-rendering="optimizeSpeed"  x="612" y="437" width="25" height="25" fill="black" />
<rect shape-rendering="optimizeSpeed"  x="237" y="462" width="25" height="25" fill="black" />
<rect shape-rendering="optimizeSpeed"  x="312" y="462" width="25" height="25" fill="black" />
<rect shape-rendering="optimizeSpeed"  x="337" y="462" width="25" height="25" fill="black" />
<rect shape-rendering="optimizeSpeed"  x="387" y="462" width="25" height="25" fill="black" />
<rect shape-rendering="optimizeSpeed"  x="437" y="462" width="25" height="25" fill="black" />
<rect shape-rendering="optimizeSpeed"  x="537" y="462" width="25" height="25" fill="black" />
<rect shape-rendering="optimizeSpeed"  x="587" y="462" width="25" height="25" fill="black" />
<rect shape-rendering="optimizeSpeed"  x="612" y="462" width="25" height="25" fill="black" />
<rect shape-rendering="optimizeSpeed"  x="37" y="487" width="25" height="25" fill="black" />
<rect shape-rendering="optimizeSpeed"  x="62" y="487" width="25" height="25" fill="black" />
<rect shape-rendering="optimizeSpeed"  x="87" y="487" width="25" height="25" fill="black" />
<rect shape-rendering="optimizeSpeed"  x="112" y="487" width="25" height="25" fill="black" />
<rect shape-rendering="optimizeSpeed"  x="137" y="487" width="25" height="25" fill="black" />
<rect shape-rendering="optimizeSpeed"  x="162" y="487" width="25" height="25" fill="black" />
<rect shape-rendering="optimizeSpeed"  x="187" y="487" width="25" height="25" fill="black" />
<rect shape-rendering="optimizeSpeed"  x="287" y="487" width="25" height="25" fill="black" />
<rect shape-rendering="optimizeSpeed"  x="312" y="487" width="25" height="25" fill="black" />
<rect shape-rendering="optimizeSpeed"  x="337" y="487" width="25" height="25" fill="black" />
<rect shape-rendering="optimizeSpeed"  x="387" y="487" width="25" height="25" fill="black" />
<rect shape-rendering="optimizeSpeed"  x="437" y="487" width="25" height="25" fill="black" />
<rect shape-rendering="optimizeSpeed"  x="487" y="487" width="25" height="25" fill="black" />
<rect shape-rendering="optimizeSpeed"  x="537" y="487" width="25" height="25" fill="black" />
<rect shape-rendering="optimizeSpeed"  x="637" y="487" width="25" height="25" fill="black" />
<rect shape-rendering="optimizeSpeed"  x="37" y="512" width="25" height="25" fill="black" />
<rect shape-rendering="optimizeSpeed"  x="187" y="512" width="25" height="25" fill="black" />
<rect shape-rendering="optimizeSpeed"  x="362" y="512" width="25" height="25" fill="black" />
<rect shape-rendering="optimizeSpeed"  x="412" y="512" width="25" height="25" fill="black" />
<rect shape-rendering="optimizeSpeed"  x="437" y="512" width="25" height="25" fill="black" />
<rect shape-rendering="optimizeSpeed"  x="537" y="512" width="25" height="25" fill="black" />
<rect shape-rendering="optimizeSpeed"  x="612" y="512" width="25" height="25" fill="black" />
<rect shape-rendering="optimizeSpeed"  x="637" y="512" width="25" height="25" fill="black" />
<rect shape-rendering="optimizeSpeed"  x="37" y="537" width="25" height="25" fill="black" />
<rect shape-rendering="optimizeSpeed"  x="87" y="537" width="25" height="25" fill="black" />
<rect shape-rendering="optimizeSpeed"  x="112" y="537" width="25" height="25" fill="black" />
<rect shape-rendering="optimizeSpeed"  x="137" y="537" width="25" height="25" fill="black" />
<rect shape-rendering="optimizeSpeed"  x="187" y="537" width="25" height="25" fill="black" />
<rect shape-rendering="optimizeSpeed"  x="237" y="537" width="25" height="25" fill="black" />
<rect shape-rendering="optimizeSpeed"  x="262" y="537" width="25" height="25" fill="black" />
<rect shape-rendering="optimizeSpeed"  x="312" y="537" width="25" height="25" fill="black" />
<rect shape-rendering="optimizeSpeed"  x="337" y="537" width="25" height="25" fill="black" />
<rect shape-rendering="optimizeSpeed"  x="387" y="537" width="25" height="25" fill="black" />
<rect shape-rendering="optimizeSpeed"  x="412" y="537" width="25" height="25" fill="black" />
<rect shape-rendering="optimizeSpeed"  x="437" y="537" width="25" height="25" fill="black" />
<rect shape-rendering="optimizeSpeed"  x="462" y="537" width="25" height="25" fill="black" />
<rect shape-rendering="optimizeSpeed"  x="487" y="537" width="25" height="25" fill="black" />
<rect shape-rendering="optimizeSpeed"  x="512" y="537" width="25" height="25" fill="black" />
<rect shape-rendering="optimizeSpeed"  x="537" y="537" width="25" height="25" fill="black" />
<rect shape-rendering="optimizeSpeed"  x="37" y="562" width="25" height="25" fill="black" />
<rect shape-rendering="optimizeSpeed"  x="87" y="562" width="25" height="25" fill="black" />
<rect shape-rendering="optimizeSpeed"  x="112" y="562" width="25" height="25" fill="black" />
<rect shape-rendering="optimizeSpeed"  x="137" y="562" width="25" height="25" fill="black" />
<rect shape-rendering="optimizeSpeed"  x="187" y="562" width="25" height="25" fill="black" />
<rect shape-rendering="optimizeSpeed"  x="237" y="562" width="25" height="25" fill="black" />
<rect shape-rendering="optimizeSpeed"  x="312" y="562" width="25" height="25" fill="black" />
<rect shape-rendering="optimizeSpeed"  x="387" y="562" width="25" height="25" fill="black" />
<rect shape-rendering="optimizeSpeed"  x="412" y="562" width="25" height="25" fill="black" />
<rect shape-rendering="optimizeSpeed"  x="437" y="562" width="25" height="25" fill="black" />
<rect shape-rendering="optimizeSpeed"  x="462" y="562" width="25" height="25" fill="black" />
<rect shape-rendering="optimizeSpeed"  x="487" y="562" width="25" height="25" fill="black" />
<rect shape-rendering="optimizeSpeed"  x="612" y="562" width="25" height="25" fill="black" />
<rect shape-rendering="optimizeSpeed"  x="637" y="562" width="25" height="25" fill="black" />
<rect shape-rendering="optimizeSpeed"  x="37" y="587" width="25" height="25" fill="black" />
<rect shape-rendering="optimizeSpeed"  x="87" y="587" width="25" height="25" fill="black" />
<rect shape-rendering="optimizeSpeed"  x="112" y="587" width="25" height="25" fill="black" />
<rect shape-rendering="optimizeSpeed"  x="137" y="587" width="25" height="25" fill="black" />
<rect shape-rendering="optimizeSpeed"  x="187" y="587" width="25" height="25" fill="black" />
<rect shape-rendering="optimizeSpeed"  x="287" y="587" width="25" height="25" fill="black" />
<rect shape-rendering="optimizeSpeed"  x="312" y="587" width="25" height="25" fill="black" />
<rect shape-rendering="optimizeSpeed"  x="362" y="587" width="25" height="25" fill="black" />
<rect shape-rendering="optimizeSpeed"  x="387" y="587" width="25" height="25" fill="black" />
<rect shape-rendering="optimizeSpeed"  x="412" y="587" width="25" height="25" fill="black" />
<rect shape-rendering="optimizeSpeed"  x="537" y="587" width="25" height="25" fill="black" />
<rect shape-rendering="optimizeSpeed"  x="562" y="587" width="25" height="25" fill="black" />
<rect shape-rendering="optimizeSpeed"  x="587" y="587" width="25" height="25" fill="black" />
<rect shape-rendering="optimizeSpeed"  x="612" y="587" width="25" height="25" fill="black" />
<rect shape-rendering="optimizeSpeed"  x="637" y="587" width="25" height="25" fill="black" />
<rect shape-rendering="optimizeSpeed"  x="37" y="612" width="25" height="25" fill="black" />
<rect shape-rendering="optimizeSpeed"  x="187" y="612" width="25" height="25" fill="black" />
<rect shape-rendering="optimizeSpeed"  x="237" y="612" width="25" height="25" fill="black" />
<rect shape-rendering="optimizeSpeed"  x="287" y="612" width="25" height="25" fill="black" />
<rect shape-rendering="optimizeSpeed"  x="312" y="612" width="25" height="25" fill="black" />
<rect shape-rendering="optimizeSpeed"  x="337" y="612" width="25" height="25" fill="black" />
<rect shape-rendering="optimizeSpeed"  x="387" y="612" width="25" height="25" fill="black" />
<rect shape-rendering="optimizeSpeed"  x="462" y="612" width="25" height="25" fill="black" />
<rect shape-rendering="optimizeSpeed"  x="487" y="612" width="25" height="25" fill="black" />
<rect shape-rendering="optimizeSpeed"  x="512" y="612" width="25" height="25" fill="black" />
<rect shape-rendering="optimizeSpeed"  x="537" y="612" width="25" height="25" fill="black" />
<rect shape-rendering="optimizeSpeed"  x="587" y="612" width="25" height="25" fill="black" />
<rect shape-rendering="optimizeSpeed"  x="612" y="612" width="25" height="25" fill="black" />
<rect shape-rendering="optimizeSpeed"  x="637" y="612" width="25" height="25" fill="black" />
<rect shape-rendering="optimizeSpeed"  x="37" y="637" width="25" height="25" fill="black" />
<rect shape-rendering="optimizeSpeed"  x="62" y="637" width="25" height="25" fill="black" />
<rect shape-rendering="optimizeSpeed"  x="87" y="637" width="25" height="25" fill="black" />
<rect shape-rendering="optimizeSpeed"  x="112" y="637" width="25" height="25" fill="black" />
<rect shape-rendering="optimizeSpeed"  x="137" y="637" width="25" height="25" fill="black" />
<rect shape-rendering="optimizeSpeed"  x="162" y="637" width="25" height="25" fill="black" />
<rect shape-rendering="optimizeSpeed"  x="187" y="637" width="25" height="25" fill="black" />
<rect shape-rendering="optimizeSpeed"  x="237" y="637" width="25" height="25" fill="black" />
<rect shape-rendering="optimizeSpeed"  x="262" y="637" width="25" height="25" fill="black" />
<rect shape-rendering="optimizeSpeed"  x="312" y="637" width="25" height="25" fill="black" />
<rect shape-rendering="optimizeSpeed"  x="337" y="637" width="25" height="25" fill="black" />
<rect shape-rendering="optimizeSpeed"  x="437" y="637" width="25" height="25" fill="black" />
<rect shape-rendering="optimizeSpeed"  x="462" y="637" width="25" height="25" fill="black" />
<rect shape-rendering="optimizeSpeed"  x="487" y="637" width="25" height="25" fill="black" />
<rect shape-rendering="optimizeSpeed"  x="562" y="637" width="25" height="25" fill="black" />
<rect shape-rendering="optimizeSpeed"  x="637" y="637" width="25" height="25" fill="black" /></svg>